%TF.GenerationSoftware,KiCad,Pcbnew,9.0.2*%
%TF.CreationDate,2025-07-25T11:07:30+05:30*%
%TF.ProjectId,IR_RX,49525f52-582e-46b6-9963-61645f706362,rev?*%
%TF.SameCoordinates,Original*%
%TF.FileFunction,Copper,L1,Top*%
%TF.FilePolarity,Positive*%
%FSLAX46Y46*%
G04 Gerber Fmt 4.6, Leading zero omitted, Abs format (unit mm)*
G04 Created by KiCad (PCBNEW 9.0.2) date 2025-07-25 11:07:30*
%MOMM*%
%LPD*%
G01*
G04 APERTURE LIST*
G04 Aperture macros list*
%AMRoundRect*
0 Rectangle with rounded corners*
0 $1 Rounding radius*
0 $2 $3 $4 $5 $6 $7 $8 $9 X,Y pos of 4 corners*
0 Add a 4 corners polygon primitive as box body*
4,1,4,$2,$3,$4,$5,$6,$7,$8,$9,$2,$3,0*
0 Add four circle primitives for the rounded corners*
1,1,$1+$1,$2,$3*
1,1,$1+$1,$4,$5*
1,1,$1+$1,$6,$7*
1,1,$1+$1,$8,$9*
0 Add four rect primitives between the rounded corners*
20,1,$1+$1,$2,$3,$4,$5,0*
20,1,$1+$1,$4,$5,$6,$7,0*
20,1,$1+$1,$6,$7,$8,$9,0*
20,1,$1+$1,$8,$9,$2,$3,0*%
G04 Aperture macros list end*
%TA.AperFunction,ComponentPad*%
%ADD10RoundRect,0.250000X0.950000X0.550000X-0.950000X0.550000X-0.950000X-0.550000X0.950000X-0.550000X0*%
%TD*%
%TA.AperFunction,ComponentPad*%
%ADD11O,2.400000X1.600000*%
%TD*%
%TA.AperFunction,ComponentPad*%
%ADD12RoundRect,0.250000X0.550000X0.550000X-0.550000X0.550000X-0.550000X-0.550000X0.550000X-0.550000X0*%
%TD*%
%TA.AperFunction,ComponentPad*%
%ADD13C,1.600000*%
%TD*%
%TA.AperFunction,ComponentPad*%
%ADD14R,1.800000X1.800000*%
%TD*%
%TA.AperFunction,ComponentPad*%
%ADD15C,1.800000*%
%TD*%
%TA.AperFunction,ComponentPad*%
%ADD16C,2.800000*%
%TD*%
%TA.AperFunction,ComponentPad*%
%ADD17RoundRect,0.250000X-0.550000X0.550000X-0.550000X-0.550000X0.550000X-0.550000X0.550000X0.550000X0*%
%TD*%
%TA.AperFunction,ComponentPad*%
%ADD18R,3.000000X3.000000*%
%TD*%
%TA.AperFunction,ComponentPad*%
%ADD19C,3.000000*%
%TD*%
%TA.AperFunction,ViaPad*%
%ADD20C,0.600000*%
%TD*%
%TA.AperFunction,Conductor*%
%ADD21C,0.200000*%
%TD*%
G04 APERTURE END LIST*
D10*
%TO.P,U1,1,GAIN*%
%TO.N,Net-(10uF1-Pad1)*%
X134120000Y-105120000D03*
D11*
%TO.P,U1,2,-*%
%TO.N,GND*%
X134120000Y-102580000D03*
%TO.P,U1,3,+*%
%TO.N,Net-(U1-+)*%
X134120000Y-100040000D03*
%TO.P,U1,4,GND*%
%TO.N,GND*%
X134120000Y-97500000D03*
%TO.P,U1,5*%
%TO.N,Net-(C2-Pad1)*%
X126500000Y-97500000D03*
%TO.P,U1,6,V+*%
%TO.N,+5V*%
X126500000Y-100040000D03*
%TO.P,U1,7,BYPASS*%
%TO.N,unconnected-(U1-BYPASS-Pad7)*%
X126500000Y-102580000D03*
%TO.P,U1,8,GAIN*%
%TO.N,Net-(10uF1-Pad2)*%
X126500000Y-105120000D03*
%TD*%
D12*
%TO.P,10uF1,1*%
%TO.N,Net-(10uF1-Pad1)*%
X131000000Y-112000000D03*
D13*
%TO.P,10uF1,2*%
%TO.N,Net-(10uF1-Pad2)*%
X128500000Y-112000000D03*
%TD*%
D14*
%TO.P,D1,1,K*%
%TO.N,Net-(D1-K)*%
X118000000Y-101040000D03*
D15*
%TO.P,D1,2,A*%
%TO.N,+5V*%
X118000000Y-98500000D03*
%TD*%
D16*
%TO.P,J2,R*%
%TO.N,unconnected-(J2-PadR)*%
X138400000Y-119500000D03*
%TO.P,J2,S*%
%TO.N,GND*%
X130500000Y-121500000D03*
%TO.P,J2,T*%
%TO.N,Net-(C2-Pad2)*%
X132900000Y-119500000D03*
%TD*%
D13*
%TO.P,R2,1*%
%TO.N,Net-(D1-K)*%
X138500000Y-107690000D03*
%TO.P,R2,2*%
%TO.N,Net-(U1-+)*%
X138500000Y-100070000D03*
%TD*%
D17*
%TO.P,C2,1*%
%TO.N,Net-(C2-Pad1)*%
X119000000Y-108000000D03*
D13*
%TO.P,C2,2*%
%TO.N,Net-(C2-Pad2)*%
X119000000Y-110500000D03*
%TD*%
D18*
%TO.P,J1,1,Pin_1*%
%TO.N,GND*%
X118000000Y-123000000D03*
D19*
%TO.P,J1,2,Pin_2*%
%TO.N,+5V*%
X118000000Y-118000000D03*
%TD*%
D20*
%TO.N,Net-(C2-Pad2)*%
X123500000Y-113000000D03*
X127500000Y-119500000D03*
%TO.N,Net-(C2-Pad1)*%
X121500000Y-99000000D03*
X118500000Y-104500000D03*
%TO.N,Net-(D1-K)*%
X137500000Y-110000000D03*
X120500000Y-104000000D03*
%TO.N,GND*%
X136500000Y-104000000D03*
X137000000Y-116000000D03*
X139500000Y-98000000D03*
%TD*%
D21*
%TO.N,Net-(10uF1-Pad2)*%
X125000000Y-111000000D02*
X126000000Y-112000000D01*
X126500000Y-105120000D02*
X126380000Y-105120000D01*
X125000000Y-106500000D02*
X125000000Y-111000000D01*
X126000000Y-112000000D02*
X128500000Y-112000000D01*
X126380000Y-105120000D02*
X125000000Y-106500000D01*
%TO.N,Net-(10uF1-Pad1)*%
X135000000Y-112000000D02*
X136000000Y-111000000D01*
X131000000Y-112000000D02*
X135000000Y-112000000D01*
X136000000Y-111000000D02*
X136000000Y-107000000D01*
X136000000Y-107000000D02*
X134120000Y-105120000D01*
%TO.N,Net-(C2-Pad2)*%
X127500000Y-119500000D02*
X132900000Y-119500000D01*
X123500000Y-113000000D02*
X121000000Y-110500000D01*
X121000000Y-110500000D02*
X119000000Y-110500000D01*
%TO.N,Net-(C2-Pad1)*%
X119000000Y-105000000D02*
X119000000Y-108000000D01*
X123000000Y-97500000D02*
X121500000Y-99000000D01*
X126500000Y-97500000D02*
X123000000Y-97500000D01*
X118500000Y-104500000D02*
X119000000Y-105000000D01*
%TO.N,Net-(D1-K)*%
X138500000Y-109000000D02*
X137500000Y-110000000D01*
X118000000Y-101500000D02*
X120500000Y-104000000D01*
X138500000Y-107690000D02*
X138500000Y-109000000D01*
X118000000Y-101040000D02*
X118000000Y-101500000D01*
%TO.N,+5V*%
X116799000Y-99701000D02*
X116799000Y-116799000D01*
X116799000Y-116799000D02*
X118000000Y-118000000D01*
X126500000Y-100040000D02*
X119540000Y-100040000D01*
X118000000Y-98500000D02*
X116799000Y-99701000D01*
X119540000Y-100040000D02*
X118000000Y-98500000D01*
%TO.N,GND*%
X134120000Y-97500000D02*
X139000000Y-97500000D01*
X137000000Y-117805578D02*
X133305578Y-121500000D01*
X120500000Y-125500000D02*
X126500000Y-125500000D01*
X118000000Y-123000000D02*
X120500000Y-125500000D01*
X126500000Y-125500000D02*
X130500000Y-121500000D01*
X133305578Y-121500000D02*
X130500000Y-121500000D01*
X135080000Y-102580000D02*
X136500000Y-104000000D01*
X134120000Y-102580000D02*
X135080000Y-102580000D01*
X139000000Y-97500000D02*
X139500000Y-98000000D01*
X137000000Y-116000000D02*
X137000000Y-117805578D01*
%TO.N,Net-(U1-+)*%
X137430000Y-99000000D02*
X135160000Y-99000000D01*
X138500000Y-100070000D02*
X137430000Y-99000000D01*
X135160000Y-99000000D02*
X134120000Y-100040000D01*
%TD*%
M02*
