M48
; DRILL file {KiCad 9.0.2} date 2025-07-25T11:09:42+0530
; FORMAT={-:-/ absolute / metric / decimal}
; #@! TF.CreationDate,2025-07-25T11:09:42+05:30
; #@! TF.GenerationSoftware,Kicad,Pcbnew,9.0.2
; #@! TF.FileFunction,Plated,1,2,PTH
FMAT,2
METRIC
; #@! TA.AperFunction,Plated,PTH,ViaDrill
T1C0.300
; #@! TA.AperFunction,Plated,PTH,ComponentDrill
T2C0.800
; #@! TA.AperFunction,Plated,PTH,ComponentDrill
T3C0.900
; #@! TA.AperFunction,Plated,PTH,ComponentDrill
T4C1.300
; #@! TA.AperFunction,Plated,PTH,ComponentDrill
T5C2.000
%
G90
G05
T1
X118.5Y-104.5
X120.5Y-104.0
X121.5Y-99.0
X123.5Y-113.0
X127.5Y-119.5
X136.5Y-104.0
X137.0Y-116.0
X137.5Y-110.0
X139.5Y-98.0
T2
X119.0Y-108.0
X119.0Y-110.5
X126.5Y-97.5
X126.5Y-100.04
X126.5Y-102.58
X126.5Y-105.12
X128.5Y-112.0
X131.0Y-112.0
X134.12Y-97.5
X134.12Y-100.04
X134.12Y-102.58
X134.12Y-105.12
X138.5Y-100.07
X138.5Y-107.69
T3
X118.0Y-98.5
X118.0Y-101.04
T4
X118.0Y-118.0
X118.0Y-123.0
T5
X130.5Y-121.5
X132.9Y-119.5
X138.4Y-119.5
M30
