%TF.GenerationSoftware,KiCad,Pcbnew,9.0.2*%
%TF.CreationDate,2025-07-25T11:16:10+05:30*%
%TF.ProjectId,IR,49522e6b-6963-4616-945f-706362585858,rev?*%
%TF.SameCoordinates,Original*%
%TF.FileFunction,Copper,L1,Top*%
%TF.FilePolarity,Positive*%
%FSLAX46Y46*%
G04 Gerber Fmt 4.6, Leading zero omitted, Abs format (unit mm)*
G04 Created by KiCad (PCBNEW 9.0.2) date 2025-07-25 11:16:10*
%MOMM*%
%LPD*%
G01*
G04 APERTURE LIST*
G04 Aperture macros list*
%AMRoundRect*
0 Rectangle with rounded corners*
0 $1 Rounding radius*
0 $2 $3 $4 $5 $6 $7 $8 $9 X,Y pos of 4 corners*
0 Add a 4 corners polygon primitive as box body*
4,1,4,$2,$3,$4,$5,$6,$7,$8,$9,$2,$3,0*
0 Add four circle primitives for the rounded corners*
1,1,$1+$1,$2,$3*
1,1,$1+$1,$4,$5*
1,1,$1+$1,$6,$7*
1,1,$1+$1,$8,$9*
0 Add four rect primitives between the rounded corners*
20,1,$1+$1,$2,$3,$4,$5,0*
20,1,$1+$1,$4,$5,$6,$7,0*
20,1,$1+$1,$6,$7,$8,$9,0*
20,1,$1+$1,$8,$9,$2,$3,0*%
G04 Aperture macros list end*
%TA.AperFunction,ComponentPad*%
%ADD10C,1.600000*%
%TD*%
%TA.AperFunction,ComponentPad*%
%ADD11RoundRect,0.250000X-0.550000X-0.550000X0.550000X-0.550000X0.550000X0.550000X-0.550000X0.550000X0*%
%TD*%
%TA.AperFunction,ComponentPad*%
%ADD12R,3.960000X1.980000*%
%TD*%
%TA.AperFunction,ComponentPad*%
%ADD13O,3.960000X1.980000*%
%TD*%
%TA.AperFunction,ComponentPad*%
%ADD14R,1.500000X1.050000*%
%TD*%
%TA.AperFunction,ComponentPad*%
%ADD15O,1.500000X1.050000*%
%TD*%
%TA.AperFunction,ComponentPad*%
%ADD16R,1.800000X1.800000*%
%TD*%
%TA.AperFunction,ComponentPad*%
%ADD17C,1.800000*%
%TD*%
%TA.AperFunction,ComponentPad*%
%ADD18C,2.800000*%
%TD*%
%TA.AperFunction,ViaPad*%
%ADD19C,0.600000*%
%TD*%
%TA.AperFunction,Conductor*%
%ADD20C,0.200000*%
%TD*%
G04 APERTURE END LIST*
D10*
%TO.P,R2,1*%
%TO.N,+5V*%
X103000000Y-82000000D03*
%TO.P,R2,2*%
%TO.N,Net-(D1-A)*%
X110620000Y-82000000D03*
%TD*%
D11*
%TO.P,C1,1*%
%TO.N,Net-(C1-Pad1)*%
X104544888Y-88500000D03*
D10*
%TO.P,C1,2*%
%TO.N,Net-(C1-Pad2)*%
X106544888Y-88500000D03*
%TD*%
D12*
%TO.P,J1,1,Pin_1*%
%TO.N,GND*%
X93500000Y-88500000D03*
D13*
%TO.P,J1,2,Pin_2*%
%TO.N,+5V*%
X93500000Y-83500000D03*
%TD*%
D14*
%TO.P,Q1,1,E*%
%TO.N,Net-(D1-K)*%
X113360000Y-98270000D03*
D15*
%TO.P,Q1,2,B*%
%TO.N,Net-(Q1-B)*%
X113360000Y-97000000D03*
%TO.P,Q1,3,C*%
%TO.N,GND*%
X113360000Y-95730000D03*
%TD*%
D10*
%TO.P,R1,1*%
%TO.N,Net-(C1-Pad2)*%
X110380000Y-90000000D03*
%TO.P,R1,2*%
%TO.N,Net-(Q1-B)*%
X118000000Y-90000000D03*
%TD*%
D16*
%TO.P,D1,1,K*%
%TO.N,Net-(D1-K)*%
X115500000Y-84500000D03*
D17*
%TO.P,D1,2,A*%
%TO.N,Net-(D1-A)*%
X115500000Y-81960000D03*
%TD*%
D18*
%TO.P,J2,R*%
%TO.N,unconnected-(J2-PadR)*%
X100600000Y-95100000D03*
%TO.P,J2,S*%
%TO.N,GND*%
X92700000Y-97100000D03*
%TO.P,J2,T*%
%TO.N,Net-(C1-Pad1)*%
X95100000Y-95100000D03*
%TD*%
D19*
%TO.N,Net-(D1-K)*%
X116500000Y-98000000D03*
X114000000Y-87500000D03*
%TO.N,GND*%
X107500000Y-94500000D03*
X95500000Y-98000000D03*
%TD*%
D20*
%TO.N,Net-(C1-Pad1)*%
X105500000Y-91000000D02*
X105500000Y-90500000D01*
X97500000Y-92000000D02*
X104500000Y-92000000D01*
X96000000Y-93500000D02*
X97500000Y-92000000D01*
X104500000Y-92000000D02*
X105500000Y-91000000D01*
X104544888Y-89544888D02*
X104544888Y-88500000D01*
X105500000Y-90500000D02*
X104544888Y-89544888D01*
X95100000Y-95100000D02*
X96000000Y-94200000D01*
X96000000Y-94200000D02*
X96000000Y-93500000D01*
%TO.N,Net-(C1-Pad2)*%
X108880000Y-88500000D02*
X110380000Y-90000000D01*
X106544888Y-88500000D02*
X108880000Y-88500000D01*
%TO.N,Net-(D1-A)*%
X114540000Y-81000000D02*
X115500000Y-81960000D01*
X111620000Y-81000000D02*
X114540000Y-81000000D01*
X110620000Y-82000000D02*
X111620000Y-81000000D01*
%TO.N,Net-(D1-K)*%
X115500000Y-84500000D02*
X114500000Y-85500000D01*
X113360000Y-97860000D02*
X113326000Y-97826000D01*
X114000000Y-85500000D02*
X114000000Y-87500000D01*
X113500000Y-98410000D02*
X113500000Y-98500000D01*
X113360000Y-98270000D02*
X113360000Y-97860000D01*
X116000000Y-98500000D02*
X113590000Y-98500000D01*
X114500000Y-85500000D02*
X114000000Y-85500000D01*
X116500000Y-98000000D02*
X116000000Y-98500000D01*
X113326000Y-97826000D02*
X113500000Y-97826000D01*
X113590000Y-98500000D02*
X113360000Y-98270000D01*
%TO.N,GND*%
X94600000Y-97100000D02*
X92700000Y-97100000D01*
X113360000Y-95730000D02*
X112130000Y-94500000D01*
X92700000Y-97100000D02*
X92600000Y-97100000D01*
X92000000Y-90000000D02*
X93500000Y-88500000D01*
X95500000Y-98000000D02*
X94600000Y-97100000D01*
X92600000Y-97100000D02*
X91500000Y-96000000D01*
X91500000Y-96000000D02*
X91500000Y-90000000D01*
X91500000Y-90000000D02*
X92000000Y-90000000D01*
X112130000Y-94500000D02*
X107500000Y-94500000D01*
%TO.N,+5V*%
X96500000Y-83000000D02*
X96000000Y-83500000D01*
X102000000Y-83000000D02*
X96500000Y-83000000D01*
X103000000Y-82000000D02*
X102000000Y-83000000D01*
X96000000Y-83500000D02*
X93500000Y-83500000D01*
%TO.N,Net-(Q1-B)*%
X113135000Y-97000000D02*
X113360000Y-97000000D01*
X113500000Y-97000000D02*
X113360000Y-97000000D01*
X114500000Y-96000000D02*
X113500000Y-97000000D01*
X117000000Y-96000000D02*
X114500000Y-96000000D01*
X118000000Y-90000000D02*
X118000000Y-95000000D01*
X118000000Y-95000000D02*
X117000000Y-96000000D01*
%TD*%
M02*
