%TF.GenerationSoftware,KiCad,Pcbnew,9.0.2*%
%TF.CreationDate,2025-07-25T11:16:10+05:30*%
%TF.ProjectId,IR,49522e6b-6963-4616-945f-706362585858,rev?*%
%TF.SameCoordinates,Original*%
%TF.FileFunction,Legend,Top*%
%TF.FilePolarity,Positive*%
%FSLAX46Y46*%
G04 Gerber Fmt 4.6, Leading zero omitted, Abs format (unit mm)*
G04 Created by KiCad (PCBNEW 9.0.2) date 2025-07-25 11:16:10*
%MOMM*%
%LPD*%
G01*
G04 APERTURE LIST*
%ADD10C,0.100000*%
%ADD11C,0.120000*%
G04 APERTURE END LIST*
D10*
X86303884Y-78872419D02*
X86303884Y-77872419D01*
X87351502Y-78872419D02*
X87018169Y-78396228D01*
X86780074Y-78872419D02*
X86780074Y-77872419D01*
X86780074Y-77872419D02*
X87161026Y-77872419D01*
X87161026Y-77872419D02*
X87256264Y-77920038D01*
X87256264Y-77920038D02*
X87303883Y-77967657D01*
X87303883Y-77967657D02*
X87351502Y-78062895D01*
X87351502Y-78062895D02*
X87351502Y-78205752D01*
X87351502Y-78205752D02*
X87303883Y-78300990D01*
X87303883Y-78300990D02*
X87256264Y-78348609D01*
X87256264Y-78348609D02*
X87161026Y-78396228D01*
X87161026Y-78396228D02*
X86780074Y-78396228D01*
X87541979Y-78967657D02*
X88303883Y-78967657D01*
X88494360Y-78586704D02*
X88970550Y-78586704D01*
X88399122Y-78872419D02*
X88732455Y-77872419D01*
X88732455Y-77872419D02*
X89065788Y-78872419D01*
X89827693Y-78205752D02*
X89827693Y-78872419D01*
X89399122Y-78205752D02*
X89399122Y-78729561D01*
X89399122Y-78729561D02*
X89446741Y-78824800D01*
X89446741Y-78824800D02*
X89541979Y-78872419D01*
X89541979Y-78872419D02*
X89684836Y-78872419D01*
X89684836Y-78872419D02*
X89780074Y-78824800D01*
X89780074Y-78824800D02*
X89827693Y-78777180D01*
X90732455Y-78872419D02*
X90732455Y-77872419D01*
X90732455Y-78824800D02*
X90637217Y-78872419D01*
X90637217Y-78872419D02*
X90446741Y-78872419D01*
X90446741Y-78872419D02*
X90351503Y-78824800D01*
X90351503Y-78824800D02*
X90303884Y-78777180D01*
X90303884Y-78777180D02*
X90256265Y-78681942D01*
X90256265Y-78681942D02*
X90256265Y-78396228D01*
X90256265Y-78396228D02*
X90303884Y-78300990D01*
X90303884Y-78300990D02*
X90351503Y-78253371D01*
X90351503Y-78253371D02*
X90446741Y-78205752D01*
X90446741Y-78205752D02*
X90637217Y-78205752D01*
X90637217Y-78205752D02*
X90732455Y-78253371D01*
X91208646Y-78872419D02*
X91208646Y-78205752D01*
X91208646Y-77872419D02*
X91161027Y-77920038D01*
X91161027Y-77920038D02*
X91208646Y-77967657D01*
X91208646Y-77967657D02*
X91256265Y-77920038D01*
X91256265Y-77920038D02*
X91208646Y-77872419D01*
X91208646Y-77872419D02*
X91208646Y-77967657D01*
X91827693Y-78872419D02*
X91732455Y-78824800D01*
X91732455Y-78824800D02*
X91684836Y-78777180D01*
X91684836Y-78777180D02*
X91637217Y-78681942D01*
X91637217Y-78681942D02*
X91637217Y-78396228D01*
X91637217Y-78396228D02*
X91684836Y-78300990D01*
X91684836Y-78300990D02*
X91732455Y-78253371D01*
X91732455Y-78253371D02*
X91827693Y-78205752D01*
X91827693Y-78205752D02*
X91970550Y-78205752D01*
X91970550Y-78205752D02*
X92065788Y-78253371D01*
X92065788Y-78253371D02*
X92113407Y-78300990D01*
X92113407Y-78300990D02*
X92161026Y-78396228D01*
X92161026Y-78396228D02*
X92161026Y-78681942D01*
X92161026Y-78681942D02*
X92113407Y-78777180D01*
X92113407Y-78777180D02*
X92065788Y-78824800D01*
X92065788Y-78824800D02*
X91970550Y-78872419D01*
X91970550Y-78872419D02*
X91827693Y-78872419D01*
X92351503Y-78967657D02*
X93113407Y-78967657D01*
X93208646Y-77872419D02*
X93780074Y-77872419D01*
X93494360Y-78872419D02*
X93494360Y-77872419D01*
X94113408Y-78872419D02*
X94113408Y-78205752D01*
X94113408Y-78396228D02*
X94161027Y-78300990D01*
X94161027Y-78300990D02*
X94208646Y-78253371D01*
X94208646Y-78253371D02*
X94303884Y-78205752D01*
X94303884Y-78205752D02*
X94399122Y-78205752D01*
X95161027Y-78872419D02*
X95161027Y-78348609D01*
X95161027Y-78348609D02*
X95113408Y-78253371D01*
X95113408Y-78253371D02*
X95018170Y-78205752D01*
X95018170Y-78205752D02*
X94827694Y-78205752D01*
X94827694Y-78205752D02*
X94732456Y-78253371D01*
X95161027Y-78824800D02*
X95065789Y-78872419D01*
X95065789Y-78872419D02*
X94827694Y-78872419D01*
X94827694Y-78872419D02*
X94732456Y-78824800D01*
X94732456Y-78824800D02*
X94684837Y-78729561D01*
X94684837Y-78729561D02*
X94684837Y-78634323D01*
X94684837Y-78634323D02*
X94732456Y-78539085D01*
X94732456Y-78539085D02*
X94827694Y-78491466D01*
X94827694Y-78491466D02*
X95065789Y-78491466D01*
X95065789Y-78491466D02*
X95161027Y-78443847D01*
X95637218Y-78205752D02*
X95637218Y-78872419D01*
X95637218Y-78300990D02*
X95684837Y-78253371D01*
X95684837Y-78253371D02*
X95780075Y-78205752D01*
X95780075Y-78205752D02*
X95922932Y-78205752D01*
X95922932Y-78205752D02*
X96018170Y-78253371D01*
X96018170Y-78253371D02*
X96065789Y-78348609D01*
X96065789Y-78348609D02*
X96065789Y-78872419D01*
X96494361Y-78824800D02*
X96589599Y-78872419D01*
X96589599Y-78872419D02*
X96780075Y-78872419D01*
X96780075Y-78872419D02*
X96875313Y-78824800D01*
X96875313Y-78824800D02*
X96922932Y-78729561D01*
X96922932Y-78729561D02*
X96922932Y-78681942D01*
X96922932Y-78681942D02*
X96875313Y-78586704D01*
X96875313Y-78586704D02*
X96780075Y-78539085D01*
X96780075Y-78539085D02*
X96637218Y-78539085D01*
X96637218Y-78539085D02*
X96541980Y-78491466D01*
X96541980Y-78491466D02*
X96494361Y-78396228D01*
X96494361Y-78396228D02*
X96494361Y-78348609D01*
X96494361Y-78348609D02*
X96541980Y-78253371D01*
X96541980Y-78253371D02*
X96637218Y-78205752D01*
X96637218Y-78205752D02*
X96780075Y-78205752D01*
X96780075Y-78205752D02*
X96875313Y-78253371D01*
X97351504Y-78872419D02*
X97351504Y-78205752D01*
X97351504Y-78300990D02*
X97399123Y-78253371D01*
X97399123Y-78253371D02*
X97494361Y-78205752D01*
X97494361Y-78205752D02*
X97637218Y-78205752D01*
X97637218Y-78205752D02*
X97732456Y-78253371D01*
X97732456Y-78253371D02*
X97780075Y-78348609D01*
X97780075Y-78348609D02*
X97780075Y-78872419D01*
X97780075Y-78348609D02*
X97827694Y-78253371D01*
X97827694Y-78253371D02*
X97922932Y-78205752D01*
X97922932Y-78205752D02*
X98065789Y-78205752D01*
X98065789Y-78205752D02*
X98161028Y-78253371D01*
X98161028Y-78253371D02*
X98208647Y-78348609D01*
X98208647Y-78348609D02*
X98208647Y-78872419D01*
X98684837Y-78872419D02*
X98684837Y-78205752D01*
X98684837Y-77872419D02*
X98637218Y-77920038D01*
X98637218Y-77920038D02*
X98684837Y-77967657D01*
X98684837Y-77967657D02*
X98732456Y-77920038D01*
X98732456Y-77920038D02*
X98684837Y-77872419D01*
X98684837Y-77872419D02*
X98684837Y-77967657D01*
X99018170Y-78205752D02*
X99399122Y-78205752D01*
X99161027Y-77872419D02*
X99161027Y-78729561D01*
X99161027Y-78729561D02*
X99208646Y-78824800D01*
X99208646Y-78824800D02*
X99303884Y-78872419D01*
X99303884Y-78872419D02*
X99399122Y-78872419D01*
X99589599Y-78205752D02*
X99970551Y-78205752D01*
X99732456Y-77872419D02*
X99732456Y-78729561D01*
X99732456Y-78729561D02*
X99780075Y-78824800D01*
X99780075Y-78824800D02*
X99875313Y-78872419D01*
X99875313Y-78872419D02*
X99970551Y-78872419D01*
X100684837Y-78824800D02*
X100589599Y-78872419D01*
X100589599Y-78872419D02*
X100399123Y-78872419D01*
X100399123Y-78872419D02*
X100303885Y-78824800D01*
X100303885Y-78824800D02*
X100256266Y-78729561D01*
X100256266Y-78729561D02*
X100256266Y-78348609D01*
X100256266Y-78348609D02*
X100303885Y-78253371D01*
X100303885Y-78253371D02*
X100399123Y-78205752D01*
X100399123Y-78205752D02*
X100589599Y-78205752D01*
X100589599Y-78205752D02*
X100684837Y-78253371D01*
X100684837Y-78253371D02*
X100732456Y-78348609D01*
X100732456Y-78348609D02*
X100732456Y-78443847D01*
X100732456Y-78443847D02*
X100256266Y-78539085D01*
X101161028Y-78872419D02*
X101161028Y-78205752D01*
X101161028Y-78396228D02*
X101208647Y-78300990D01*
X101208647Y-78300990D02*
X101256266Y-78253371D01*
X101256266Y-78253371D02*
X101351504Y-78205752D01*
X101351504Y-78205752D02*
X101446742Y-78205752D01*
X106643333Y-80087419D02*
X106310000Y-79611228D01*
X106071905Y-80087419D02*
X106071905Y-79087419D01*
X106071905Y-79087419D02*
X106452857Y-79087419D01*
X106452857Y-79087419D02*
X106548095Y-79135038D01*
X106548095Y-79135038D02*
X106595714Y-79182657D01*
X106595714Y-79182657D02*
X106643333Y-79277895D01*
X106643333Y-79277895D02*
X106643333Y-79420752D01*
X106643333Y-79420752D02*
X106595714Y-79515990D01*
X106595714Y-79515990D02*
X106548095Y-79563609D01*
X106548095Y-79563609D02*
X106452857Y-79611228D01*
X106452857Y-79611228D02*
X106071905Y-79611228D01*
X107024286Y-79182657D02*
X107071905Y-79135038D01*
X107071905Y-79135038D02*
X107167143Y-79087419D01*
X107167143Y-79087419D02*
X107405238Y-79087419D01*
X107405238Y-79087419D02*
X107500476Y-79135038D01*
X107500476Y-79135038D02*
X107548095Y-79182657D01*
X107548095Y-79182657D02*
X107595714Y-79277895D01*
X107595714Y-79277895D02*
X107595714Y-79373133D01*
X107595714Y-79373133D02*
X107548095Y-79515990D01*
X107548095Y-79515990D02*
X106976667Y-80087419D01*
X106976667Y-80087419D02*
X107595714Y-80087419D01*
X105378221Y-85112180D02*
X105330602Y-85159800D01*
X105330602Y-85159800D02*
X105187745Y-85207419D01*
X105187745Y-85207419D02*
X105092507Y-85207419D01*
X105092507Y-85207419D02*
X104949650Y-85159800D01*
X104949650Y-85159800D02*
X104854412Y-85064561D01*
X104854412Y-85064561D02*
X104806793Y-84969323D01*
X104806793Y-84969323D02*
X104759174Y-84778847D01*
X104759174Y-84778847D02*
X104759174Y-84635990D01*
X104759174Y-84635990D02*
X104806793Y-84445514D01*
X104806793Y-84445514D02*
X104854412Y-84350276D01*
X104854412Y-84350276D02*
X104949650Y-84255038D01*
X104949650Y-84255038D02*
X105092507Y-84207419D01*
X105092507Y-84207419D02*
X105187745Y-84207419D01*
X105187745Y-84207419D02*
X105330602Y-84255038D01*
X105330602Y-84255038D02*
X105378221Y-84302657D01*
X106330602Y-85207419D02*
X105759174Y-85207419D01*
X106044888Y-85207419D02*
X106044888Y-84207419D01*
X106044888Y-84207419D02*
X105949650Y-84350276D01*
X105949650Y-84350276D02*
X105854412Y-84445514D01*
X105854412Y-84445514D02*
X105759174Y-84493133D01*
X85967419Y-90753333D02*
X86681704Y-90753333D01*
X86681704Y-90753333D02*
X86824561Y-90800952D01*
X86824561Y-90800952D02*
X86919800Y-90896190D01*
X86919800Y-90896190D02*
X86967419Y-91039047D01*
X86967419Y-91039047D02*
X86967419Y-91134285D01*
X86967419Y-89753333D02*
X86967419Y-90324761D01*
X86967419Y-90039047D02*
X85967419Y-90039047D01*
X85967419Y-90039047D02*
X86110276Y-90134285D01*
X86110276Y-90134285D02*
X86205514Y-90229523D01*
X86205514Y-90229523D02*
X86253133Y-90324761D01*
X110352657Y-97095238D02*
X110305038Y-97190476D01*
X110305038Y-97190476D02*
X110209800Y-97285714D01*
X110209800Y-97285714D02*
X110066942Y-97428571D01*
X110066942Y-97428571D02*
X110019323Y-97523809D01*
X110019323Y-97523809D02*
X110019323Y-97619047D01*
X110257419Y-97571428D02*
X110209800Y-97666666D01*
X110209800Y-97666666D02*
X110114561Y-97761904D01*
X110114561Y-97761904D02*
X109924085Y-97809523D01*
X109924085Y-97809523D02*
X109590752Y-97809523D01*
X109590752Y-97809523D02*
X109400276Y-97761904D01*
X109400276Y-97761904D02*
X109305038Y-97666666D01*
X109305038Y-97666666D02*
X109257419Y-97571428D01*
X109257419Y-97571428D02*
X109257419Y-97380952D01*
X109257419Y-97380952D02*
X109305038Y-97285714D01*
X109305038Y-97285714D02*
X109400276Y-97190476D01*
X109400276Y-97190476D02*
X109590752Y-97142857D01*
X109590752Y-97142857D02*
X109924085Y-97142857D01*
X109924085Y-97142857D02*
X110114561Y-97190476D01*
X110114561Y-97190476D02*
X110209800Y-97285714D01*
X110209800Y-97285714D02*
X110257419Y-97380952D01*
X110257419Y-97380952D02*
X110257419Y-97571428D01*
X110257419Y-96190476D02*
X110257419Y-96761904D01*
X110257419Y-96476190D02*
X109257419Y-96476190D01*
X109257419Y-96476190D02*
X109400276Y-96571428D01*
X109400276Y-96571428D02*
X109495514Y-96666666D01*
X109495514Y-96666666D02*
X109543133Y-96761904D01*
X115333333Y-87957419D02*
X115000000Y-87481228D01*
X114761905Y-87957419D02*
X114761905Y-86957419D01*
X114761905Y-86957419D02*
X115142857Y-86957419D01*
X115142857Y-86957419D02*
X115238095Y-87005038D01*
X115238095Y-87005038D02*
X115285714Y-87052657D01*
X115285714Y-87052657D02*
X115333333Y-87147895D01*
X115333333Y-87147895D02*
X115333333Y-87290752D01*
X115333333Y-87290752D02*
X115285714Y-87385990D01*
X115285714Y-87385990D02*
X115238095Y-87433609D01*
X115238095Y-87433609D02*
X115142857Y-87481228D01*
X115142857Y-87481228D02*
X114761905Y-87481228D01*
X116285714Y-87957419D02*
X115714286Y-87957419D01*
X116000000Y-87957419D02*
X116000000Y-86957419D01*
X116000000Y-86957419D02*
X115904762Y-87100276D01*
X115904762Y-87100276D02*
X115809524Y-87195514D01*
X115809524Y-87195514D02*
X115714286Y-87243133D01*
X111997419Y-84238094D02*
X110997419Y-84238094D01*
X110997419Y-84238094D02*
X110997419Y-83999999D01*
X110997419Y-83999999D02*
X111045038Y-83857142D01*
X111045038Y-83857142D02*
X111140276Y-83761904D01*
X111140276Y-83761904D02*
X111235514Y-83714285D01*
X111235514Y-83714285D02*
X111425990Y-83666666D01*
X111425990Y-83666666D02*
X111568847Y-83666666D01*
X111568847Y-83666666D02*
X111759323Y-83714285D01*
X111759323Y-83714285D02*
X111854561Y-83761904D01*
X111854561Y-83761904D02*
X111949800Y-83857142D01*
X111949800Y-83857142D02*
X111997419Y-83999999D01*
X111997419Y-83999999D02*
X111997419Y-84238094D01*
X111997419Y-82714285D02*
X111997419Y-83285713D01*
X111997419Y-82999999D02*
X110997419Y-82999999D01*
X110997419Y-82999999D02*
X111140276Y-83095237D01*
X111140276Y-83095237D02*
X111235514Y-83190475D01*
X111235514Y-83190475D02*
X111283133Y-83285713D01*
X85707419Y-97333333D02*
X86421704Y-97333333D01*
X86421704Y-97333333D02*
X86564561Y-97380952D01*
X86564561Y-97380952D02*
X86659800Y-97476190D01*
X86659800Y-97476190D02*
X86707419Y-97619047D01*
X86707419Y-97619047D02*
X86707419Y-97714285D01*
X85802657Y-96904761D02*
X85755038Y-96857142D01*
X85755038Y-96857142D02*
X85707419Y-96761904D01*
X85707419Y-96761904D02*
X85707419Y-96523809D01*
X85707419Y-96523809D02*
X85755038Y-96428571D01*
X85755038Y-96428571D02*
X85802657Y-96380952D01*
X85802657Y-96380952D02*
X85897895Y-96333333D01*
X85897895Y-96333333D02*
X85993133Y-96333333D01*
X85993133Y-96333333D02*
X86135990Y-96380952D01*
X86135990Y-96380952D02*
X86707419Y-96952380D01*
X86707419Y-96952380D02*
X86707419Y-96333333D01*
D11*
%TO.C,R2*%
X103540000Y-80630000D02*
X110080000Y-80630000D01*
X103540000Y-80960000D02*
X103540000Y-80630000D01*
X103540000Y-83040000D02*
X103540000Y-83370000D01*
X103540000Y-83370000D02*
X110080000Y-83370000D01*
X110080000Y-80630000D02*
X110080000Y-80960000D01*
X110080000Y-83370000D02*
X110080000Y-83040000D01*
%TO.C,C1*%
X102740113Y-87025000D02*
X103240113Y-87025000D01*
X102990113Y-86775000D02*
X102990113Y-87275000D01*
X105544888Y-85920000D02*
X105544888Y-87460000D01*
X105544888Y-89540000D02*
X105544888Y-91080000D01*
X105584888Y-85920000D02*
X105584888Y-87460000D01*
X105584888Y-89540000D02*
X105584888Y-91080000D01*
X105624888Y-85921000D02*
X105624888Y-87460000D01*
X105624888Y-89540000D02*
X105624888Y-91079000D01*
X105664888Y-85923000D02*
X105664888Y-87460000D01*
X105664888Y-89540000D02*
X105664888Y-91077000D01*
X105704888Y-85925000D02*
X105704888Y-87460000D01*
X105704888Y-89540000D02*
X105704888Y-91075000D01*
X105744888Y-85928000D02*
X105744888Y-87460000D01*
X105744888Y-89540000D02*
X105744888Y-91072000D01*
X105784888Y-85931000D02*
X105784888Y-87460000D01*
X105784888Y-89540000D02*
X105784888Y-91069000D01*
X105824888Y-85935000D02*
X105824888Y-87460000D01*
X105824888Y-89540000D02*
X105824888Y-91065000D01*
X105864888Y-85940000D02*
X105864888Y-87460000D01*
X105864888Y-89540000D02*
X105864888Y-91060000D01*
X105904888Y-85945000D02*
X105904888Y-87460000D01*
X105904888Y-89540000D02*
X105904888Y-91055000D01*
X105944888Y-85951000D02*
X105944888Y-87460000D01*
X105944888Y-89540000D02*
X105944888Y-91049000D01*
X105984888Y-85957000D02*
X105984888Y-87460000D01*
X105984888Y-89540000D02*
X105984888Y-91043000D01*
X106024888Y-85964000D02*
X106024888Y-87460000D01*
X106024888Y-89540000D02*
X106024888Y-91036000D01*
X106064888Y-85972000D02*
X106064888Y-87460000D01*
X106064888Y-89540000D02*
X106064888Y-91028000D01*
X106104888Y-85981000D02*
X106104888Y-87460000D01*
X106104888Y-89540000D02*
X106104888Y-91019000D01*
X106144888Y-85990000D02*
X106144888Y-87460000D01*
X106144888Y-89540000D02*
X106144888Y-91010000D01*
X106184888Y-85999000D02*
X106184888Y-87460000D01*
X106184888Y-89540000D02*
X106184888Y-91001000D01*
X106224888Y-86010000D02*
X106224888Y-87460000D01*
X106224888Y-89540000D02*
X106224888Y-90990000D01*
X106264888Y-86021000D02*
X106264888Y-87460000D01*
X106264888Y-89540000D02*
X106264888Y-90979000D01*
X106304888Y-86033000D02*
X106304888Y-87460000D01*
X106304888Y-89540000D02*
X106304888Y-90967000D01*
X106344888Y-86045000D02*
X106344888Y-87460000D01*
X106344888Y-89540000D02*
X106344888Y-90955000D01*
X106384888Y-86058000D02*
X106384888Y-87460000D01*
X106384888Y-89540000D02*
X106384888Y-90942000D01*
X106424888Y-86072000D02*
X106424888Y-87460000D01*
X106424888Y-89540000D02*
X106424888Y-90928000D01*
X106464888Y-86087000D02*
X106464888Y-87460000D01*
X106464888Y-89540000D02*
X106464888Y-90913000D01*
X106504888Y-86102000D02*
X106504888Y-87460000D01*
X106504888Y-89540000D02*
X106504888Y-90898000D01*
X106544888Y-86118000D02*
X106544888Y-87460000D01*
X106544888Y-89540000D02*
X106544888Y-90882000D01*
X106584888Y-86135000D02*
X106584888Y-87460000D01*
X106584888Y-89540000D02*
X106584888Y-90865000D01*
X106624888Y-86153000D02*
X106624888Y-87460000D01*
X106624888Y-89540000D02*
X106624888Y-90847000D01*
X106664888Y-86171000D02*
X106664888Y-87460000D01*
X106664888Y-89540000D02*
X106664888Y-90829000D01*
X106704888Y-86191000D02*
X106704888Y-87460000D01*
X106704888Y-89540000D02*
X106704888Y-90809000D01*
X106744888Y-86211000D02*
X106744888Y-87460000D01*
X106744888Y-89540000D02*
X106744888Y-90789000D01*
X106784888Y-86232000D02*
X106784888Y-87460000D01*
X106784888Y-89540000D02*
X106784888Y-90768000D01*
X106824888Y-86254000D02*
X106824888Y-87460000D01*
X106824888Y-89540000D02*
X106824888Y-90746000D01*
X106864888Y-86277000D02*
X106864888Y-87460000D01*
X106864888Y-89540000D02*
X106864888Y-90723000D01*
X106904888Y-86301000D02*
X106904888Y-87460000D01*
X106904888Y-89540000D02*
X106904888Y-90699000D01*
X106944888Y-86325000D02*
X106944888Y-87460000D01*
X106944888Y-89540000D02*
X106944888Y-90675000D01*
X106984888Y-86351000D02*
X106984888Y-87460000D01*
X106984888Y-89540000D02*
X106984888Y-90649000D01*
X107024888Y-86378000D02*
X107024888Y-87460000D01*
X107024888Y-89540000D02*
X107024888Y-90622000D01*
X107064888Y-86406000D02*
X107064888Y-87460000D01*
X107064888Y-89540000D02*
X107064888Y-90594000D01*
X107104888Y-86435000D02*
X107104888Y-87460000D01*
X107104888Y-89540000D02*
X107104888Y-90565000D01*
X107144888Y-86465000D02*
X107144888Y-87460000D01*
X107144888Y-89540000D02*
X107144888Y-90535000D01*
X107184888Y-86497000D02*
X107184888Y-87460000D01*
X107184888Y-89540000D02*
X107184888Y-90503000D01*
X107224888Y-86530000D02*
X107224888Y-87460000D01*
X107224888Y-89540000D02*
X107224888Y-90470000D01*
X107264888Y-86564000D02*
X107264888Y-87460000D01*
X107264888Y-89540000D02*
X107264888Y-90436000D01*
X107304888Y-86599000D02*
X107304888Y-87460000D01*
X107304888Y-89540000D02*
X107304888Y-90401000D01*
X107344888Y-86636000D02*
X107344888Y-87460000D01*
X107344888Y-89540000D02*
X107344888Y-90364000D01*
X107384888Y-86675000D02*
X107384888Y-87460000D01*
X107384888Y-89540000D02*
X107384888Y-90325000D01*
X107424888Y-86715000D02*
X107424888Y-87460000D01*
X107424888Y-89540000D02*
X107424888Y-90285000D01*
X107464888Y-86757000D02*
X107464888Y-87460000D01*
X107464888Y-89540000D02*
X107464888Y-90243000D01*
X107504888Y-86801000D02*
X107504888Y-87460000D01*
X107504888Y-89540000D02*
X107504888Y-90199000D01*
X107544888Y-86848000D02*
X107544888Y-87460000D01*
X107544888Y-89540000D02*
X107544888Y-90152000D01*
X107584888Y-86896000D02*
X107584888Y-90104000D01*
X107624888Y-86947000D02*
X107624888Y-90053000D01*
X107664888Y-87001000D02*
X107664888Y-89999000D01*
X107704888Y-87057000D02*
X107704888Y-89943000D01*
X107744888Y-87117000D02*
X107744888Y-89883000D01*
X107784888Y-87181000D02*
X107784888Y-89819000D01*
X107824888Y-87249000D02*
X107824888Y-89751000D01*
X107864888Y-87323000D02*
X107864888Y-89677000D01*
X107904888Y-87402000D02*
X107904888Y-89598000D01*
X107944888Y-87489000D02*
X107944888Y-89511000D01*
X107984888Y-87586000D02*
X107984888Y-89414000D01*
X108024888Y-87695000D02*
X108024888Y-89305000D01*
X108064888Y-87823000D02*
X108064888Y-89177000D01*
X108104888Y-87983000D02*
X108104888Y-89017000D01*
X108144888Y-88217000D02*
X108144888Y-88783000D01*
X108164888Y-88500000D02*
G75*
G02*
X102924888Y-88500000I-2620000J0D01*
G01*
X102924888Y-88500000D02*
G75*
G02*
X108164888Y-88500000I2620000J0D01*
G01*
%TO.C,J1*%
X87200000Y-80300000D02*
X87200000Y-91150000D01*
X87200000Y-91150000D02*
X99800000Y-91150000D01*
X92000000Y-80800000D02*
X92300000Y-80300000D01*
X92300000Y-80300000D02*
X87200000Y-80300000D01*
X97150000Y-80300000D02*
X97400000Y-80800000D01*
X97200000Y-80300000D02*
X97150000Y-80300000D01*
X97400000Y-80800000D02*
X92000000Y-80800000D01*
X98850000Y-80800000D02*
X99100000Y-80300000D01*
X99100000Y-80300000D02*
X97200000Y-80300000D01*
X99800000Y-80800000D02*
X98850000Y-80800000D01*
X99800000Y-91150000D02*
X99800000Y-80800000D01*
%TO.C,Q1*%
X115210000Y-98800000D02*
X115210000Y-95200000D01*
X110760000Y-97000000D02*
G75*
G02*
X115198478Y-95161522I2600000J0D01*
G01*
X115198478Y-98838478D02*
G75*
G02*
X110759999Y-97000000I-1838478J1838478D01*
G01*
%TO.C,R1*%
X110920000Y-88630000D02*
X117460000Y-88630000D01*
X110920000Y-88960000D02*
X110920000Y-88630000D01*
X110920000Y-91040000D02*
X110920000Y-91370000D01*
X110920000Y-91370000D02*
X117460000Y-91370000D01*
X117460000Y-88630000D02*
X117460000Y-88960000D01*
X117460000Y-91370000D02*
X117460000Y-91040000D01*
%TO.C,D1*%
X113955000Y-85790000D02*
X117045000Y-85790000D01*
X113955170Y-85790000D02*
G75*
G02*
X115500000Y-80240000I1544830J2560000D01*
G01*
X115500000Y-80240000D02*
G75*
G02*
X117044830Y-85790000I0J-2990000D01*
G01*
X118000000Y-83230000D02*
G75*
G02*
X113000000Y-83230000I-2500000J0D01*
G01*
X113000000Y-83230000D02*
G75*
G02*
X118000000Y-83230000I2500000J0D01*
G01*
%TO.C,J2*%
X87380000Y-93080000D02*
X91380000Y-93080000D01*
X87380000Y-99320000D02*
X87380000Y-93080000D01*
X91380000Y-92780000D02*
X105620000Y-92780000D01*
X91380000Y-93080000D02*
X91380000Y-92780000D01*
X91380000Y-99320000D02*
X87380000Y-99320000D01*
X91380000Y-101220000D02*
X91380000Y-99320000D01*
X105620000Y-92780000D02*
X105620000Y-101220000D01*
X105620000Y-101220000D02*
X91380000Y-101220000D01*
%TD*%
M02*
