M48
; DRILL file {KiCad 9.0.2} date 2025-07-25T11:16:36+0530
; FORMAT={-:-/ absolute / metric / decimal}
; #@! TF.CreationDate,2025-07-25T11:16:36+05:30
; #@! TF.GenerationSoftware,Kicad,Pcbnew,9.0.2
; #@! TF.FileFunction,Plated,1,2,PTH
FMAT,2
METRIC
; #@! TA.AperFunction,Plated,PTH,ViaDrill
T1C0.300
; #@! TA.AperFunction,Plated,PTH,ComponentDrill
T2C0.750
; #@! TA.AperFunction,Plated,PTH,ComponentDrill
T3C0.800
; #@! TA.AperFunction,Plated,PTH,ComponentDrill
T4C0.900
; #@! TA.AperFunction,Plated,PTH,ComponentDrill
T5C1.320
; #@! TA.AperFunction,Plated,PTH,ComponentDrill
T6C2.000
%
G90
G05
T1
X95.5Y-98.0
X107.5Y-94.5
X114.0Y-87.5
X116.5Y-98.0
T2
X113.36Y-95.73
X113.36Y-97.0
X113.36Y-98.27
T3
X103.0Y-82.0
X104.545Y-88.5
X106.545Y-88.5
X110.38Y-90.0
X110.62Y-82.0
X118.0Y-90.0
T4
X115.5Y-81.96
X115.5Y-84.5
T5
X93.5Y-83.5
X93.5Y-88.5
T6
X92.7Y-97.1
X95.1Y-95.1
X100.6Y-95.1
M30
